<svg width="1280" height="360" viewBox="0 0 1280 360" fill="none" xmlns="http://www.w3.org/2000/svg">
  <defs>
    <linearGradient id="bg" x1="78" y1="24" x2="1170" y2="336" gradientUnits="userSpaceOnUse">
      <stop stop-color="#07111F"/>
      <stop offset="0.52" stop-color="#0D1B2A"/>
      <stop offset="1" stop-color="#111827"/>
    </linearGradient>
    <linearGradient id="accentA" x1="216" y1="78" x2="525" y2="250" gradientUnits="userSpaceOnUse">
      <stop stop-color="#22C55E"/>
      <stop offset="1" stop-color="#14B8A6"/>
    </linearGradient>
    <linearGradient id="accentB" x1="866" y1="26" x2="1180" y2="304" gradientUnits="userSpaceOnUse">
      <stop stop-color="#38BDF8"/>
      <stop offset="1" stop-color="#0EA5E9"/>
    </linearGradient>
    <linearGradient id="line" x1="0" y1="0" x2="1" y2="1">
      <stop stop-color="#22C55E" stop-opacity="0.75"/>
      <stop offset="1" stop-color="#38BDF8" stop-opacity="0.75"/>
    </linearGradient>
    <filter id="blurA" x="0" y="0" width="1280" height="360" filterUnits="userSpaceOnUse" color-interpolation-filters="sRGB">
      <feGaussianBlur stdDeviation="28"/>
    </filter>
  </defs>

  <rect width="1280" height="360" rx="28" fill="url(#bg)"/>

  <g opacity="0.28" filter="url(#blurA)">
    <circle cx="228" cy="104" r="94" fill="url(#accentA)"/>
    <circle cx="1092" cy="86" r="92" fill="url(#accentB)"/>
    <circle cx="1030" cy="312" r="84" fill="#F59E0B"/>
  </g>

  <path d="M104 288H1176" stroke="url(#line)" stroke-opacity="0.28" stroke-width="2"/>
  <path d="M104 84H410" stroke="#22C55E" stroke-opacity="0.45" stroke-width="4" stroke-linecap="round"/>
  <path d="M870 274H1176" stroke="#38BDF8" stroke-opacity="0.45" stroke-width="4" stroke-linecap="round"/>

  <g opacity="0.22">
    <path d="M860 52H1184V220H860V52Z" stroke="#94A3B8"/>
    <path d="M916 52V220" stroke="#94A3B8"/>
    <path d="M972 52V220" stroke="#94A3B8"/>
    <path d="M1028 52V220" stroke="#94A3B8"/>
    <path d="M1084 52V220" stroke="#94A3B8"/>
    <path d="M1140 52V220" stroke="#94A3B8"/>
    <path d="M860 108H1184" stroke="#94A3B8"/>
    <path d="M860 164H1184" stroke="#94A3B8"/>
  </g>

  <g>
    <rect x="98" y="72" width="116" height="116" rx="26" fill="#0B1324" stroke="#1F2937" stroke-width="2"/>
    <path d="M130 150L156 110L182 150" stroke="#22C55E" stroke-width="10" stroke-linecap="round" stroke-linejoin="round"/>
    <path d="M138 160H176" stroke="#38BDF8" stroke-width="10" stroke-linecap="round"/>
  </g>

  <text x="248" y="126" fill="#E5F0FF" font-family="Segoe UI, Arial, sans-serif" font-size="42" font-weight="700">
    Khaled Saadaoui
  </text>
  <text x="248" y="170" fill="#9FB3C8" font-family="Segoe UI, Arial, sans-serif" font-size="21" font-weight="600">
    Full-Stack and Mobile Developer
  </text>
  <text x="248" y="208" fill="#C7D2E0" font-family="Segoe UI, Arial, sans-serif" font-size="18">
    Building practical products with Angular, React, Node.js, Flutter, and modern backend systems.
  </text>

  <g>
    <rect x="248" y="244" width="124" height="34" rx="17" fill="#112034" stroke="#1E293B"/>
    <rect x="386" y="244" width="108" height="34" rx="17" fill="#112034" stroke="#1E293B"/>
    <rect x="508" y="244" width="118" height="34" rx="17" fill="#112034" stroke="#1E293B"/>
    <rect x="640" y="244" width="112" height="34" rx="17" fill="#112034" stroke="#1E293B"/>
    <rect x="766" y="244" width="112" height="34" rx="17" fill="#112034" stroke="#1E293B"/>

    <text x="273" y="266" fill="#E5F0FF" font-family="Segoe UI, Arial, sans-serif" font-size="15" font-weight="600">Angular</text>
    <text x="418" y="266" fill="#E5F0FF" font-family="Segoe UI, Arial, sans-serif" font-size="15" font-weight="600">React</text>
    <text x="536" y="266" fill="#E5F0FF" font-family="Segoe UI, Arial, sans-serif" font-size="15" font-weight="600">Node.js</text>
    <text x="667" y="266" fill="#E5F0FF" font-family="Segoe UI, Arial, sans-serif" font-size="15" font-weight="600">Flutter</text>
    <text x="789" y="266" fill="#E5F0FF" font-family="Segoe UI, Arial, sans-serif" font-size="15" font-weight="600">Docker</text>
  </g>
</svg>

